<svg version="1.1" id="Layer_1" xmlns="http://www.w3.org/2000/svg" xmlns:xlink="http://www.w3.org/1999/xlink" x="0px" y="0px"
	 width="100%" viewBox="0 0 166 156" enable-background="new 0 0 166 156" xml:space="preserve">
<path fill="#FDFEFE" opacity="1.000000" stroke="none" 
	d="
M99.000000,157.000000 
	C66.000008,157.000000 33.500008,157.000000 1.000009,157.000000 
	C1.000006,105.000008 1.000006,53.000019 1.000003,1.000023 
	C56.333317,1.000015 111.666634,1.000015 166.999969,1.000008 
	C166.999969,52.999981 166.999969,104.999962 166.999985,156.999969 
	C144.500000,157.000000 122.000000,157.000000 99.000000,157.000000 
M17.066654,77.921066 
	C16.828306,91.817200 24.944759,98.937721 37.878494,95.697136 
	C48.462315,93.045334 57.340240,86.986839 67.292458,79.797058 
	C57.761852,74.703369 49.449512,69.412880 40.488262,65.680305 
	C28.571249,60.716595 21.100559,64.839989 17.066654,77.921066 
M150.345734,78.337776 
	C148.130478,69.545250 143.621689,65.069069 136.327667,65.393669 
	C122.758255,65.997559 112.368416,73.621292 101.562683,81.306602 
	C110.863449,88.070557 119.530647,94.591087 130.300659,97.092796 
	C143.213882,100.092361 151.726440,92.418900 150.345734,78.337776 
M43.654427,100.019249 
	C41.015499,101.718338 38.126312,103.130287 35.785038,105.170891 
	C29.036789,111.052521 29.262171,120.751564 36.062729,127.640495 
	C42.784882,134.449997 52.434376,135.170319 58.050678,128.389603 
	C61.660198,124.031715 64.440109,118.682426 66.398712,113.340080 
	C68.731667,106.976646 69.787575,100.145035 71.787987,91.904709 
	C61.497295,94.863571 52.934765,97.325539 43.654427,100.019249 
M98.796463,137.642838 
	C101.100395,121.838814 91.371895,110.771370 83.672241,98.374519 
	C76.679283,107.708580 70.212799,116.730492 67.527039,127.793541 
	C65.294121,136.991241 68.724602,143.621552 76.953423,146.576477 
	C85.792343,149.750473 94.412392,146.463150 98.796463,137.642838 
M69.878784,37.418243 
	C72.908562,46.876617 78.235916,55.004704 84.149429,62.974968 
	C92.267349,53.605282 98.814804,41.473274 100.428917,33.030701 
	C102.524887,22.067812 95.732910,13.944528 84.516296,13.999013 
	C72.000397,14.059810 66.267624,22.784256 69.878784,37.418243 
M39.043335,31.402454 
	C30.612762,39.028862 29.229122,48.400700 36.028046,54.810131 
	C45.845123,64.064819 58.546604,65.744179 71.910278,67.395798 
	C69.592514,57.380470 67.378693,47.465492 63.395111,38.321510 
	C58.603081,27.321804 50.166767,25.253626 39.043335,31.402454 
M122.839882,29.137257 
	C117.756447,28.252310 113.229218,29.272554 109.686111,33.225235 
	C100.817139,43.119461 99.097664,55.561100 96.611961,68.506485 
	C108.653229,66.964325 119.751579,65.188705 129.356873,58.743500 
	C138.505356,52.604816 139.729294,42.963814 132.302460,34.941696 
	C130.042175,32.500240 126.553848,31.195698 122.839882,29.137257 
M115.272255,133.677536 
	C116.594604,133.782761 117.942970,134.108856 119.235016,133.956741 
	C126.634216,133.085526 131.881180,129.193863 134.790848,122.329117 
	C136.994308,117.130501 136.603729,111.988564 132.656540,107.900146 
	C122.769669,97.659554 109.476601,96.217964 95.804482,93.516052 
	C97.220642,100.243988 98.264275,105.952827 99.666313,111.572243 
	C100.466179,114.778145 101.671051,117.917603 103.010956,120.946579 
	C105.409309,126.368286 108.517334,131.245056 115.272255,133.677536 
M77.321541,76.032906 
	C74.891953,80.158989 75.089714,84.059372 78.844254,87.204765 
	C81.839119,89.713745 85.270149,89.772957 88.534714,87.543335 
	C92.344292,84.941490 93.174408,79.777458 90.489777,76.093315 
	C87.543129,72.049629 82.766113,71.793091 77.321541,76.032906 
z"/>
<path fill="#03AEB6" opacity="1.000000" stroke="none" 
	d="
M17.141872,77.510864 
	C21.100559,64.839989 28.571249,60.716595 40.488262,65.680305 
	C49.449512,69.412880 57.761852,74.703369 67.292458,79.797058 
	C57.340240,86.986839 48.462315,93.045334 37.878494,95.697136 
	C24.944759,98.937721 16.828306,91.817200 17.141872,77.510864 
z"/>
<path fill="#03AEB6" opacity="1.000000" stroke="none" 
	d="
M150.456696,78.729263 
	C151.726440,92.418900 143.213882,100.092361 130.300659,97.092796 
	C119.530647,94.591087 110.863449,88.070557 101.562683,81.306602 
	C112.368416,73.621292 122.758255,65.997559 136.327667,65.393669 
	C143.621689,65.069069 148.130478,69.545250 150.456696,78.729263 
z"/>
<path fill="#03AEB6" opacity="1.000000" stroke="none" 
	d="
M44.013329,99.903381 
	C52.934765,97.325539 61.497295,94.863571 71.787987,91.904709 
	C69.787575,100.145035 68.731667,106.976646 66.398712,113.340080 
	C64.440109,118.682426 61.660198,124.031715 58.050678,128.389603 
	C52.434376,135.170319 42.784882,134.449997 36.062729,127.640495 
	C29.262171,120.751564 29.036789,111.052521 35.785038,105.170891 
	C38.126312,103.130287 41.015499,101.718338 44.013329,99.903381 
z"/>
<path fill="#03AEB6" opacity="1.000000" stroke="none" 
	d="
M98.612328,138.014862 
	C94.412392,146.463150 85.792343,149.750473 76.953423,146.576477 
	C68.724602,143.621552 65.294121,136.991241 67.527039,127.793541 
	C70.212799,116.730492 76.679283,107.708580 83.672241,98.374519 
	C91.371895,110.771370 101.100395,121.838814 98.612328,138.014862 
z"/>
<path fill="#03AEB6" opacity="1.000000" stroke="none" 
	d="
M69.757492,37.031296 
	C66.267624,22.784256 72.000397,14.059810 84.516296,13.999013 
	C95.732910,13.944528 102.524887,22.067812 100.428917,33.030701 
	C98.814804,41.473274 92.267349,53.605282 84.149429,62.974968 
	C78.235916,55.004704 72.908562,46.876617 69.757492,37.031296 
z"/>
<path fill="#03AEB6" opacity="1.000000" stroke="none" 
	d="
M39.356796,31.203339 
	C50.166767,25.253626 58.603081,27.321804 63.395111,38.321510 
	C67.378693,47.465492 69.592514,57.380470 71.910278,67.395798 
	C58.546604,65.744179 45.845123,64.064819 36.028046,54.810131 
	C29.229122,48.400700 30.612762,39.028862 39.356796,31.203339 
z"/>
<path fill="#03AEB6" opacity="1.000000" stroke="none" 
	d="
M123.233917,29.253857 
	C126.553848,31.195698 130.042175,32.500240 132.302460,34.941696 
	C139.729294,42.963814 138.505356,52.604816 129.356873,58.743500 
	C119.751579,65.188705 108.653229,66.964325 96.611961,68.506485 
	C99.097664,55.561100 100.817139,43.119461 109.686111,33.225235 
	C113.229218,29.272554 117.756447,28.252310 123.233917,29.253857 
z"/>
<path fill="#03AEB6" opacity="1.000000" stroke="none" 
	d="
M114.906281,133.513733 
	C108.517334,131.245056 105.409309,126.368286 103.010956,120.946579 
	C101.671051,117.917603 100.466179,114.778145 99.666313,111.572243 
	C98.264275,105.952827 97.220642,100.243988 95.804482,93.516052 
	C109.476601,96.217964 122.769669,97.659554 132.656540,107.900146 
	C136.603729,111.988564 136.994308,117.130501 134.790848,122.329117 
	C131.881180,129.193863 126.634216,133.085526 119.235016,133.956741 
	C117.942970,134.108856 116.594604,133.782761 114.906281,133.513733 
z"/>
<path fill="#07AFB7" opacity="1.000000" stroke="none" 
	d="
M77.582703,75.723564 
	C82.766113,71.793091 87.543129,72.049629 90.489777,76.093315 
	C93.174408,79.777458 92.344292,84.941490 88.534714,87.543335 
	C85.270149,89.772957 81.839119,89.713745 78.844254,87.204765 
	C75.089714,84.059372 74.891953,80.158989 77.582703,75.723564 
z"/>
</svg>