<svg version="1.1" id="Layer_1" xmlns="http://www.w3.org/2000/svg" xmlns:xlink="http://www.w3.org/1999/xlink" x="0px" y="0px"
	 width="100%" viewBox="0 0 590 203" enable-background="new 0 0 590 203" xml:space="preserve">
<path fill="#FEFFFF" opacity="1.000000" stroke="none" 
	d="
M420.000000,204.000000 
	C280.043976,204.000000 140.587936,204.000000 1.065953,204.000000 
	C1.065953,136.398682 1.065953,68.797287 1.065953,1.097945 
	C197.666641,1.097945 394.333313,1.097945 590.973022,1.097945 
	C590.973022,68.745331 590.973022,136.372665 590.973022,204.000000 
	C534.130676,204.000000 477.315338,204.000000 420.000000,204.000000 
M349.091431,103.500000 
	C349.091431,114.223198 349.091431,124.946396 349.091431,135.792847 
	C357.740570,135.792847 365.565338,136.101746 373.356171,135.719223 
	C384.561310,135.169067 391.659546,126.445961 388.579346,116.077530 
	C387.229767,111.534500 382.928070,107.868454 379.864014,103.662979 
	C384.264740,100.140327 386.068481,94.733917 384.184265,88.044334 
	C382.304230,81.369629 377.300232,78.054840 371.102600,77.411827 
	C363.934387,76.668129 356.629822,77.238770 349.091248,77.238770 
	C349.091248,85.918427 349.091248,94.209213 349.091431,103.500000 
M218.563385,128.135040 
	C215.225433,128.135040 211.887466,128.135040 207.814377,128.135040 
	C218.058334,113.952461 227.722748,100.811340 237.062225,87.443207 
	C238.963501,84.721802 239.641968,81.146095 241.153809,77.273438 
	C225.717056,77.273438 211.839935,77.273438 197.995789,77.273438 
	C197.995789,79.821152 197.995789,82.052948 197.995789,84.877335 
	C208.513214,84.877335 218.679626,84.877335 229.663025,84.877335 
	C219.394135,98.961632 209.787170,112.310966 199.958862,125.495300 
	C197.531723,128.751221 196.872772,131.909393 198.038193,135.589523 
	C212.340240,135.589523 226.438080,135.589523 240.687317,135.589523 
	C240.687317,133.069595 240.687317,130.831467 240.687317,128.135162 
	C233.466599,128.135162 226.505890,128.135162 218.563385,128.135040 
M117.331520,44.244625 
	C116.155289,43.330280 115.074371,42.244762 113.787910,41.528355 
	C102.301033,35.131550 88.145561,41.627441 88.425957,53.467957 
	C88.748306,67.080246 96.738121,77.373756 105.005745,89.357117 
	C110.222336,79.523766 115.151138,71.084984 119.223846,62.251492 
	C121.868759,56.514801 122.157631,50.297840 117.331520,44.244625 
M134.927933,97.411514 
	C130.534286,100.250992 126.140640,103.090469 121.349922,106.186562 
	C131.912415,113.722061 141.576355,121.172874 154.138260,122.803215 
	C159.884506,123.548981 164.688995,121.597374 167.797562,116.544823 
	C171.813019,110.018242 171.839859,103.292183 167.884567,96.741058 
	C164.806961,91.643623 159.821976,89.314880 154.245926,90.616730 
	C147.867798,92.105850 141.782822,94.850639 134.927933,97.411514 
M119.098808,154.777161 
	C117.197189,142.804077 110.441467,133.341019 102.963623,122.730637 
	C98.128067,131.279999 93.150078,138.625183 89.751762,146.640167 
	C87.740326,151.384155 87.063644,157.369690 87.869026,162.468002 
	C88.971535,169.447205 98.174187,173.994720 105.616150,172.615448 
	C115.458122,170.791351 119.495071,165.743256 119.098808,154.777161 
M52.778416,133.577271 
	C47.957924,140.108627 52.692581,151.545670 59.686073,155.426254 
	C68.002808,160.041077 75.534668,158.911453 80.606796,150.268036 
	C84.393341,143.815399 86.499336,136.330322 88.972481,129.173294 
	C90.156189,125.747734 90.455788,122.016670 91.236954,118.007568 
	C86.619766,118.801682 82.981369,119.223999 79.445992,120.074539 
	C69.747849,122.407715 59.952179,124.632919 52.778416,133.577271 
M124.694077,65.263176 
	C120.212265,74.061790 118.108269,83.479355 116.803238,93.633194 
	C120.697258,93.017052 124.118011,92.980644 127.165535,91.895775 
	C135.232040,89.024185 143.620438,86.538269 150.964966,82.308670 
	C157.766708,78.391647 158.594818,71.403633 155.207108,64.329422 
	C152.222641,58.097210 147.293839,54.515034 140.450485,53.951069 
	C132.532120,53.298512 128.521515,58.665291 124.694077,65.263176 
M120.060570,138.354736 
	C123.011169,143.875595 125.254501,149.959290 129.088486,154.777161 
	C134.063553,161.028946 143.301834,160.331512 150.053070,154.276031 
	C156.757828,148.262222 158.219559,138.641617 152.659470,132.887299 
	C142.798737,122.682076 129.527298,121.091484 115.735641,118.584801 
	C117.262146,125.597031 118.565491,131.584167 120.060570,138.354736 
M37.663174,109.582024 
	C40.638321,118.900406 45.014698,122.126465 54.669262,121.051872 
	C66.897148,119.690865 76.317619,112.306854 87.497147,104.818451 
	C77.513649,99.580681 68.801460,93.900818 59.302685,90.290497 
	C45.596844,85.081131 35.494095,94.116318 37.663174,109.582024 
M54.255939,78.008797 
	C64.289780,88.958939 77.953941,90.446404 91.701118,93.250160 
	C89.856224,81.281189 88.229149,70.216370 81.945488,60.677517 
	C76.358498,52.196220 68.985512,50.706211 60.506084,55.449402 
	C54.167995,58.994785 48.716511,70.081146 54.255939,78.008797 
M287.122925,106.519806 
	C283.199677,95.838219 273.020203,91.015938 262.226746,94.725853 
	C247.937805,99.637230 243.441849,120.185944 254.287399,131.012543 
	C264.127441,140.835373 282.325897,137.206070 286.954956,124.497574 
	C283.225006,122.688408 280.264771,122.342850 277.256500,126.474960 
	C274.451721,130.327530 267.977295,130.848785 263.411194,128.814804 
	C259.169739,126.925446 256.770294,122.477608 257.107391,116.569595 
	C267.303925,116.569595 277.543365,116.569595 288.468658,116.569595 
	C288.037445,113.098289 287.676788,110.194679 287.122925,106.519806 
M460.204620,107.295036 
	C459.269531,97.523170 454.142517,93.527580 443.008087,93.893364 
	C433.754517,94.197350 428.431580,98.421608 428.195221,105.861168 
	C430.223541,106.273361 432.285156,106.692329 434.263794,107.094429 
	C436.820251,101.358093 439.840942,99.372498 445.067383,99.886955 
	C449.125122,100.286385 452.142181,102.111137 452.492462,106.528374 
	C452.863434,111.206291 448.909760,110.952202 446.006165,111.731888 
	C441.690460,112.890755 437.167816,113.507217 433.065002,115.172127 
	C428.052185,117.206352 426.013306,122.004616 427.073151,127.595146 
	C428.024994,132.616119 431.320679,135.181900 436.251404,136.127457 
	C442.797028,137.382721 448.226959,135.266525 451.582520,132.042831 
	C456.410675,133.869476 460.229675,135.314316 464.772461,137.032990 
	C464.933319,133.873642 465.014862,132.272171 465.120056,130.206131 
	C460.370758,130.263855 460.378235,126.919044 460.345367,123.657021 
	C460.293365,118.495026 460.300842,113.332428 460.204620,107.295036 
M523.983032,128.413574 
	C523.983032,130.836761 523.983032,133.259949 523.983032,135.621277 
	C527.003662,135.621277 529.276672,135.621277 531.838806,135.621277 
	C531.838806,125.433586 532.229492,115.458771 531.704956,105.532318 
	C531.339722,98.620110 526.399475,94.043167 519.498352,94.104942 
	C514.930969,94.145828 510.378632,95.862206 505.629761,96.868713 
	C504.832520,92.220184 500.821808,94.838524 497.448425,94.729774 
	C497.448425,108.492020 497.448425,121.908638 497.448425,135.592072 
	C500.092285,135.592072 502.480804,135.592072 504.998169,135.592072 
	C505.087280,134.520401 505.209106,133.701981 505.215027,132.882721 
	C505.270477,125.218224 505.012543,117.537193 505.439697,109.894157 
	C505.785034,103.715118 509.811096,100.471436 515.674316,100.687096 
	C521.017517,100.883621 523.817871,104.079735 523.948792,110.440308 
	C524.065308,116.104012 523.979553,121.771881 523.983032,128.413574 
M333.960846,122.490074 
	C333.945862,117.499237 334.113678,112.499641 333.875122,107.519508 
	C333.467316,99.004570 328.650970,93.817093 320.440186,94.051697 
	C316.060577,94.176819 311.733063,96.125732 307.221497,97.293053 
	C307.194214,97.118889 307.006927,95.923470 306.831146,94.801254 
	C304.192535,94.801254 301.783020,94.801254 299.393463,94.801254 
	C299.393463,108.577164 299.393463,121.986389 299.393463,135.527115 
	C302.059570,135.527115 304.437653,135.527115 307.125183,135.527115 
	C307.125183,132.393433 307.108215,129.582840 307.128754,126.772522 
	C307.171265,120.951553 306.885864,115.100639 307.385986,109.318321 
	C307.883392,103.567390 312.002136,100.456612 317.632568,100.688805 
	C322.776611,100.900948 325.571686,104.001320 325.882141,109.971115 
	C325.994293,112.128357 325.915680,114.295753 325.916473,116.458511 
	C325.918793,122.871033 325.917267,129.283554 325.917267,135.596375 
	C328.965210,135.596375 331.231262,135.596375 333.960663,135.596375 
	C333.960663,131.394333 333.960663,127.439560 333.960846,122.490074 
M400.841766,113.500465 
	C400.841766,120.905182 400.841766,128.309891 400.841766,135.563766 
	C403.935944,135.563766 406.192749,135.563766 408.938538,135.563766 
	C408.938538,127.649185 408.804657,120.029198 408.981995,112.416473 
	C409.117584,106.596519 411.683228,102.728493 416.660156,102.314476 
	C423.003693,101.786766 422.030487,98.280136 421.082855,93.057785 
	C416.677948,95.138588 412.793732,96.973412 408.919830,98.803368 
	C408.694214,97.560555 408.436920,96.143097 408.184021,94.749985 
	C405.616058,94.749985 403.376160,94.749985 400.842560,94.749985 
	C400.842560,100.882492 400.842560,106.691643 400.841766,113.500465 
M476.811462,94.476707 
	C476.204895,95.917480 475.088531,97.352402 475.071899,98.799950 
	C474.931458,111.042366 474.991730,123.287102 474.991730,135.500763 
	C477.996216,135.500763 480.379486,135.500763 482.780334,135.500763 
	C482.780334,121.748138 482.780334,108.342529 482.780334,94.458618 
	C480.944550,94.458618 479.316223,94.458618 476.811462,94.476707 
M96.018707,107.994408 
	C98.781776,113.498932 102.615013,115.426163 107.064278,113.359116 
	C111.045616,111.509483 112.679581,108.235825 111.834152,103.956947 
	C111.039253,99.933807 107.040947,97.374550 102.777519,97.886551 
	C98.261787,98.428856 96.081810,101.380211 96.018707,107.994408 
M476.498993,84.779121 
	C479.977356,85.892670 483.140625,85.375534 483.796204,81.434364 
	C484.089691,79.669937 482.709534,76.636848 481.210266,75.846748 
	C479.750458,75.077423 476.533936,75.766960 475.218781,77.010811 
	C472.899963,79.203926 473.332703,82.094887 476.498993,84.779121 
z"/>
<path fill="#40454D" opacity="1.000000" stroke="none" 
	d="
M349.091339,103.000000 
	C349.091248,94.209213 349.091248,85.918427 349.091248,77.238770 
	C356.629822,77.238770 363.934387,76.668129 371.102600,77.411827 
	C377.300232,78.054840 382.304230,81.369629 384.184265,88.044334 
	C386.068481,94.733917 384.264740,100.140327 379.864014,103.662979 
	C382.928070,107.868454 387.229767,111.534500 388.579346,116.077530 
	C391.659546,126.445961 384.561310,135.169067 373.356171,135.719223 
	C365.565338,136.101746 357.740570,135.792847 349.091431,135.792847 
	C349.091431,124.946396 349.091431,114.223198 349.091339,103.000000 
M370.056580,109.013176 
	C365.826843,109.013176 361.597137,109.013176 357.401978,109.013176 
	C357.401978,115.798500 357.401978,121.866394 357.401978,128.439392 
	C361.760132,128.439392 365.865479,128.551437 369.962494,128.414230 
	C376.822876,128.184464 380.767761,124.927574 381.045258,119.483269 
	C381.349365,113.517586 378.233673,110.296829 370.056580,109.013176 
M362.521606,102.452408 
	C364.669006,102.382111 366.843262,102.502281 368.958496,102.203880 
	C374.163300,101.469643 377.014648,98.205093 377.063110,93.223000 
	C377.108887,88.518768 374.408234,84.960991 369.461639,84.348251 
	C365.474762,83.854385 361.377899,84.248230 357.412842,84.248230 
	C357.412842,90.510498 357.412842,96.246986 357.412842,102.187416 
	C358.968323,102.286903 360.263458,102.369736 362.521606,102.452408 
z"/>
<path fill="#42474E" opacity="1.000000" stroke="none" 
	d="
M219.054291,128.135101 
	C226.505890,128.135162 233.466599,128.135162 240.687317,128.135162 
	C240.687317,130.831467 240.687317,133.069595 240.687317,135.589523 
	C226.438080,135.589523 212.340240,135.589523 198.038193,135.589523 
	C196.872772,131.909393 197.531723,128.751221 199.958862,125.495300 
	C209.787170,112.310966 219.394135,98.961632 229.663025,84.877335 
	C218.679626,84.877335 208.513214,84.877335 197.995789,84.877335 
	C197.995789,82.052948 197.995789,79.821152 197.995789,77.273438 
	C211.839935,77.273438 225.717056,77.273438 241.153809,77.273438 
	C239.641968,81.146095 238.963501,84.721802 237.062225,87.443207 
	C227.722748,100.811340 218.058334,113.952461 207.814377,128.135040 
	C211.887466,128.135040 215.225433,128.135040 219.054291,128.135101 
z"/>
<path fill="#03AEB6" opacity="1.000000" stroke="none" 
	d="
M117.589233,44.513367 
	C122.157631,50.297840 121.868759,56.514801 119.223846,62.251492 
	C115.151138,71.084984 110.222336,79.523766 105.005745,89.357117 
	C96.738121,77.373756 88.748306,67.080246 88.425957,53.467957 
	C88.145561,41.627441 102.301033,35.131550 113.787910,41.528355 
	C115.074371,42.244762 116.155289,43.330280 117.589233,44.513367 
z"/>
<path fill="#03AEB6" opacity="1.000000" stroke="none" 
	d="
M135.249207,97.230667 
	C141.782822,94.850639 147.867798,92.105850 154.245926,90.616730 
	C159.821976,89.314880 164.806961,91.643623 167.884567,96.741058 
	C171.839859,103.292183 171.813019,110.018242 167.797562,116.544823 
	C164.688995,121.597374 159.884506,123.548981 154.138260,122.803215 
	C141.576355,121.172874 131.912415,113.722061 121.349922,106.186562 
	C126.140640,103.090469 130.534286,100.250992 135.249207,97.230667 
z"/>
<path fill="#03AEB6" opacity="1.000000" stroke="none" 
	d="
M119.131813,155.225174 
	C119.495071,165.743256 115.458122,170.791351 105.616150,172.615448 
	C98.174187,173.994720 88.971535,169.447205 87.869026,162.468002 
	C87.063644,157.369690 87.740326,151.384155 89.751762,146.640167 
	C93.150078,138.625183 98.128067,131.279999 102.963623,122.730637 
	C110.441467,133.341019 117.197189,142.804077 119.131813,155.225174 
z"/>
<path fill="#03AEB6" opacity="1.000000" stroke="none" 
	d="
M52.954865,133.240540 
	C59.952179,124.632919 69.747849,122.407715 79.445992,120.074539 
	C82.981369,119.223999 86.619766,118.801682 91.236954,118.007568 
	C90.455788,122.016670 90.156189,125.747734 88.972481,129.173294 
	C86.499336,136.330322 84.393341,143.815399 80.606796,150.268036 
	C75.534668,158.911453 68.002808,160.041077 59.686073,155.426254 
	C52.692581,151.545670 47.957924,140.108627 52.954865,133.240540 
z"/>
<path fill="#03AEB6" opacity="1.000000" stroke="none" 
	d="
M124.849991,64.925865 
	C128.521515,58.665291 132.532120,53.298512 140.450485,53.951069 
	C147.293839,54.515034 152.222641,58.097210 155.207108,64.329422 
	C158.594818,71.403633 157.766708,78.391647 150.964966,82.308670 
	C143.620438,86.538269 135.232040,89.024185 127.165535,91.895775 
	C124.118011,92.980644 120.697258,93.017052 116.803238,93.633194 
	C118.108269,83.479355 120.212265,74.061790 124.849991,64.925865 
z"/>
<path fill="#03AEB6" opacity="1.000000" stroke="none" 
	d="
M119.964706,137.963028 
	C118.565491,131.584167 117.262146,125.597031 115.735641,118.584801 
	C129.527298,121.091484 142.798737,122.682076 152.659470,132.887299 
	C158.219559,138.641617 156.757828,148.262222 150.053070,154.276031 
	C143.301834,160.331512 134.063553,161.028946 129.088486,154.777161 
	C125.254501,149.959290 123.011169,143.875595 119.964706,137.963028 
z"/>
<path fill="#03AEB6" opacity="1.000000" stroke="none" 
	d="
M37.529350,109.187943 
	C35.494095,94.116318 45.596844,85.081131 59.302685,90.290497 
	C68.801460,93.900818 77.513649,99.580681 87.497147,104.818451 
	C76.317619,112.306854 66.897148,119.690865 54.669262,121.051872 
	C45.014698,122.126465 40.638321,118.900406 37.529350,109.187943 
z"/>
<path fill="#03AEB6" opacity="1.000000" stroke="none" 
	d="
M54.067551,77.675529 
	C48.716511,70.081146 54.167995,58.994785 60.506084,55.449402 
	C68.985512,50.706211 76.358498,52.196220 81.945488,60.677517 
	C88.229149,70.216370 89.856224,81.281189 91.701118,93.250160 
	C77.953941,90.446404 64.289780,88.958939 54.067551,77.675529 
z"/>
<path fill="#41464E" opacity="1.000000" stroke="none" 
	d="
M287.219543,106.905441 
	C287.676788,110.194679 288.037445,113.098289 288.468658,116.569595 
	C277.543365,116.569595 267.303925,116.569595 257.107391,116.569595 
	C256.770294,122.477608 259.169739,126.925446 263.411194,128.814804 
	C267.977295,130.848785 274.451721,130.327530 277.256500,126.474960 
	C280.264771,122.342850 283.225006,122.688408 286.954956,124.497635 
	C282.325897,137.206070 264.127441,140.835373 254.287399,131.012543 
	C243.441849,120.185944 247.937805,99.637230 262.226746,94.725853 
	C273.020203,91.015938 283.199677,95.838219 287.219543,106.905441 
M276.087402,110.560295 
	C277.341309,110.461540 278.595184,110.362785 279.855988,110.263481 
	C279.022156,102.937233 275.543823,99.793579 268.763397,99.873169 
	C261.834442,99.954506 257.753479,103.607903 257.306335,110.560127 
	C263.278595,110.560127 269.227631,110.560127 276.087402,110.560295 
z"/>
<path fill="#3F444C" opacity="1.000000" stroke="none" 
	d="
M460.243866,107.732559 
	C460.300842,113.332428 460.293365,118.495026 460.345367,123.657021 
	C460.378235,126.919044 460.370758,130.263855 465.120056,130.206131 
	C465.014862,132.272171 464.933319,133.873642 464.772461,137.032990 
	C460.229675,135.314316 456.410675,133.869476 451.582520,132.042831 
	C448.226959,135.266525 442.797028,137.382721 436.251404,136.127457 
	C431.320679,135.181900 428.024994,132.616119 427.073151,127.595146 
	C426.013306,122.004616 428.052185,117.206352 433.065002,115.172127 
	C437.167816,113.507217 441.690460,112.890755 446.006165,111.731888 
	C448.909760,110.952202 452.863434,111.206291 452.492462,106.528374 
	C452.142181,102.111137 449.125122,100.286385 445.067383,99.886955 
	C439.840942,99.372498 436.820251,101.358093 434.263794,107.094429 
	C432.285156,106.692329 430.223541,106.273361 428.195221,105.861168 
	C428.431580,98.421608 433.754517,94.197350 443.008087,93.893364 
	C454.142517,93.527580 459.269531,97.523170 460.243866,107.732559 
M435.129028,122.130852 
	C434.530548,127.678581 436.244354,129.980469 441.049164,130.082520 
	C448.399628,130.238632 453.868439,123.558990 452.202362,115.400185 
	C446.589722,117.442871 441.082520,119.447174 435.129028,122.130852 
z"/>
<path fill="#40454D" opacity="1.000000" stroke="none" 
	d="
M523.983032,127.925743 
	C523.979553,121.771881 524.065308,116.104012 523.948792,110.440308 
	C523.817871,104.079735 521.017517,100.883621 515.674316,100.687096 
	C509.811096,100.471436 505.785034,103.715118 505.439697,109.894157 
	C505.012543,117.537193 505.270477,125.218224 505.215027,132.882721 
	C505.209106,133.701981 505.087280,134.520401 504.998169,135.592072 
	C502.480804,135.592072 500.092285,135.592072 497.448425,135.592072 
	C497.448425,121.908638 497.448425,108.492020 497.448425,94.729774 
	C500.821808,94.838524 504.832520,92.220184 505.629761,96.868713 
	C510.378632,95.862206 514.930969,94.145828 519.498352,94.104942 
	C526.399475,94.043167 531.339722,98.620110 531.704956,105.532318 
	C532.229492,115.458771 531.838806,125.433586 531.838806,135.621277 
	C529.276672,135.621277 527.003662,135.621277 523.983032,135.621277 
	C523.983032,133.259949 523.983032,130.836761 523.983032,127.925743 
z"/>
<path fill="#40454D" opacity="1.000000" stroke="none" 
	d="
M333.960754,122.987427 
	C333.960663,127.439560 333.960663,131.394333 333.960663,135.596375 
	C331.231262,135.596375 328.965210,135.596375 325.917267,135.596375 
	C325.917267,129.283554 325.918793,122.871033 325.916473,116.458511 
	C325.915680,114.295753 325.994293,112.128357 325.882141,109.971115 
	C325.571686,104.001320 322.776611,100.900948 317.632568,100.688805 
	C312.002136,100.456612 307.883392,103.567390 307.385986,109.318321 
	C306.885864,115.100639 307.171265,120.951553 307.128754,126.772522 
	C307.108215,129.582840 307.125183,132.393433 307.125183,135.527115 
	C304.437653,135.527115 302.059570,135.527115 299.393463,135.527115 
	C299.393463,121.986389 299.393463,108.577164 299.393463,94.801254 
	C301.783020,94.801254 304.192535,94.801254 306.831146,94.801254 
	C307.006927,95.923470 307.194214,97.118889 307.221497,97.293053 
	C311.733063,96.125732 316.060577,94.176819 320.440186,94.051697 
	C328.650970,93.817093 333.467316,99.004570 333.875122,107.519508 
	C334.113678,112.499641 333.945862,117.499237 333.960754,122.987427 
z"/>
<path fill="#42474F" opacity="1.000000" stroke="none" 
	d="
M400.842163,113.000626 
	C400.842560,106.691643 400.842560,100.882492 400.842560,94.749985 
	C403.376160,94.749985 405.616058,94.749985 408.184021,94.749985 
	C408.436920,96.143097 408.694214,97.560555 408.919830,98.803368 
	C412.793732,96.973412 416.677948,95.138588 421.082855,93.057785 
	C422.030487,98.280136 423.003693,101.786766 416.660156,102.314476 
	C411.683228,102.728493 409.117584,106.596519 408.981995,112.416473 
	C408.804657,120.029198 408.938538,127.649185 408.938538,135.563766 
	C406.192749,135.563766 403.935944,135.563766 400.841766,135.563766 
	C400.841766,128.309891 400.841766,120.905182 400.842163,113.000626 
z"/>
<path fill="#3D4149" opacity="1.000000" stroke="none" 
	d="
M477.249695,94.467667 
	C479.316223,94.458618 480.944550,94.458618 482.780334,94.458618 
	C482.780334,108.342529 482.780334,121.748138 482.780334,135.500763 
	C480.379486,135.500763 477.996216,135.500763 474.991730,135.500763 
	C474.991730,123.287102 474.931458,111.042366 475.071899,98.799950 
	C475.088531,97.352402 476.204895,95.917480 477.249695,94.467667 
z"/>
<path fill="#07AFB7" opacity="1.000000" stroke="none" 
	d="
M95.961029,107.593765 
	C96.081810,101.380211 98.261787,98.428856 102.777519,97.886551 
	C107.040947,97.374550 111.039253,99.933807 111.834152,103.956947 
	C112.679581,108.235825 111.045616,111.509483 107.064278,113.359116 
	C102.615013,115.426163 98.781776,113.498932 95.961029,107.593765 
z"/>
<path fill="#40454C" opacity="1.000000" stroke="none" 
	d="
M476.204834,84.552689 
	C473.332703,82.094887 472.899963,79.203926 475.218781,77.010811 
	C476.533936,75.766960 479.750458,75.077423 481.210266,75.846748 
	C482.709534,76.636848 484.089691,79.669937 483.796204,81.434364 
	C483.140625,85.375534 479.977356,85.892670 476.204834,84.552689 
z"/>
<path fill="#FCFCFC" opacity="1.000000" stroke="none" 
	d="
M370.501282,109.028381 
	C378.233673,110.296829 381.349365,113.517586 381.045258,119.483269 
	C380.767761,124.927574 376.822876,128.184464 369.962494,128.414230 
	C365.865479,128.551437 361.760132,128.439392 357.401978,128.439392 
	C357.401978,121.866394 357.401978,115.798500 357.401978,109.013176 
	C361.597137,109.013176 365.826843,109.013176 370.501282,109.028381 
z"/>
<path fill="#FBFBFB" opacity="1.000000" stroke="none" 
	d="
M362.040100,102.452484 
	C360.263458,102.369736 358.968323,102.286903 357.412842,102.187416 
	C357.412842,96.246986 357.412842,90.510498 357.412842,84.248230 
	C361.377899,84.248230 365.474762,83.854385 369.461639,84.348251 
	C374.408234,84.960991 377.108887,88.518768 377.063110,93.223000 
	C377.014648,98.205093 374.163300,101.469643 368.958496,102.203880 
	C366.843262,102.502281 364.669006,102.382111 362.040100,102.452484 
z"/>
<path fill="#F1F2F2" opacity="1.000000" stroke="none" 
	d="
M275.632019,110.560211 
	C269.227631,110.560127 263.278595,110.560127 257.306335,110.560127 
	C257.753479,103.607903 261.834442,99.954506 268.763397,99.873169 
	C275.543823,99.793579 279.022156,102.937233 279.855988,110.263481 
	C278.595184,110.362785 277.341309,110.461540 275.632019,110.560211 
z"/>
<path fill="#F8F8F8" opacity="1.000000" stroke="none" 
	d="
M435.352173,121.791168 
	C441.082520,119.447174 446.589722,117.442871 452.202362,115.400185 
	C453.868439,123.558990 448.399628,130.238632 441.049164,130.082520 
	C436.244354,129.980469 434.530548,127.678581 435.352173,121.791168 
z"/>
</svg>